# xmcd
#
# Track frame offsets:
#  150
#  22744
#  49143
#  65567
#  84991
#  99540
#  130889
#  178213
#  203037
#  229886
#
# Disc length: 3933 seconds
#
# Revision: 0
# Processed by: cddbd v1.5.1PL2 Copyright (c) Steve Scherf et al.
# Submitted via: Collectorz.com_Music_Collector 6.11
#
DISCID=810f5b0a
DTITLE=Clapton, Eric - Les Trois Mousquetaires (2CDs) [CD2)
DYEAR=1988
DGENRE=Blues Rock
TTITLE0=Elton John - I Guess That's Why They Call It The Blues
TTITLE1=Elton John - I Don't Wanna Go On With You Like That
TTITLE2=Elton John - I'm Still Standing
TTITLE3=Elton John - Daniel
TTITLE4=Eric Clapton - Band Introduction
TTITLE5=Eric Clapton - Cocaine
TTITLE6=Eric Clapton - Layla
TTITLE7=Mark Knopfler - Solid Rock
TTITLE8=Elton John - Saturday Night All Right For Fighting
TTITLE9=Eric Clapton - Sunshine Of Your Love
EXTD=
EXTT0=
EXTT1=
EXTT2=
EXTT3=
EXTT4=
EXTT5=
EXTT6=
EXTT7=
EXTT8=
EXTT9=
PLAYORDER=
